<svg width="200" height="190" viewBox="0 0 200 190" fill="none" xmlns="http://www.w3.org/2000/svg">
<rect width="200" height="190" fill="#1E1E1E"/>
<rect width="200" height="190" fill="#F7E018"/>
<path d="M85.642 78.4545H97.0909V146.04C97.0909 152.072 95.983 157.196 93.767 161.413C91.5511 165.629 88.4273 168.83 84.3956 171.015C80.3639 173.2 75.6089 174.293 70.1307 174.293C64.9602 174.293 60.3591 173.354 56.3274 171.477C52.2957 169.568 49.1257 166.86 46.8175 163.352C44.5092 159.843 43.3551 155.673 43.3551 150.841H54.6193C54.6193 153.518 55.281 155.857 56.6044 157.858C57.9586 159.828 59.8052 161.366 62.1442 162.474C64.4832 163.582 67.1454 164.136 70.1307 164.136C73.4238 164.136 76.2244 163.444 78.5327 162.059C80.8409 160.674 82.5952 158.643 83.7955 155.965C85.0265 153.257 85.642 149.948 85.642 146.04V78.4545ZM171.739 102.091C171.185 97.4129 168.939 93.7812 164.999 91.196C161.06 88.6108 156.228 87.3182 150.504 87.3182C146.318 87.3182 142.656 87.9953 139.516 89.3494C136.408 90.7036 133.977 92.5656 132.222 94.9354C130.499 97.3052 129.637 99.9981 129.637 103.014C129.637 105.538 130.237 107.708 131.438 109.523C132.669 111.308 134.238 112.801 136.146 114.001C138.054 115.171 140.055 116.14 142.148 116.91C144.241 117.648 146.164 118.249 147.918 118.71L157.521 121.295C159.983 121.942 162.722 122.834 165.738 123.973C168.785 125.112 171.693 126.666 174.463 128.636C177.264 130.575 179.572 133.067 181.388 136.114C183.204 139.161 184.112 142.901 184.112 147.332C184.112 152.441 182.773 157.058 180.095 161.182C177.448 165.306 173.571 168.584 168.462 171.015C163.384 173.446 157.213 174.662 149.95 174.662C143.179 174.662 137.316 173.569 132.361 171.384C127.437 169.199 123.559 166.152 120.727 162.244C117.927 158.335 116.342 153.795 115.972 148.625H127.79C128.098 152.195 129.299 155.15 131.391 157.489C133.515 159.797 136.192 161.52 139.424 162.659C142.686 163.767 146.195 164.321 149.95 164.321C154.32 164.321 158.244 163.613 161.722 162.197C165.199 160.751 167.954 158.75 169.985 156.196C172.016 153.611 173.032 150.595 173.032 147.148C173.032 144.009 172.155 141.454 170.401 139.484C168.646 137.515 166.338 135.914 163.476 134.683C160.614 133.452 157.521 132.375 154.197 131.452L142.563 128.128C135.177 126.004 129.329 122.973 125.021 119.033C120.712 115.094 118.558 109.939 118.558 103.568C118.558 98.2746 119.989 93.6581 122.851 89.7188C125.744 85.7486 129.622 82.6709 134.484 80.4858C139.378 78.2699 144.841 77.1619 150.873 77.1619C156.967 77.1619 162.383 78.2545 167.123 80.4396C171.862 82.594 175.617 85.5485 178.387 89.3033C181.188 93.058 182.665 97.3205 182.819 102.091H171.739Z" fill="black"/>
</svg>
